<svg xmlns:dc="http://purl.org/dc/elements/1.1/" xmlns:cc="http://creativecommons.org/ns#" xmlns:rdf="http://www.w3.org/1999/02/22-rdf-syntax-ns#" xmlns:svg="http://www.w3.org/2000/svg" xmlns="http://www.w3.org/2000/svg" xmlns:sodipodi="http://sodipodi.sourceforge.net/DTD/sodipodi-0.dtd" xmlns:inkscape="http://www.inkscape.org/namespaces/inkscape" version="1.1" x="0px" y="0px" viewBox="0 0 100 125"><g transform="translate(0,-952.36218)"><path style="color:#FFFFFF;enable-background:accumulate;" d="m 50,960.36218 c 4.79326,0 8.64756,2.63856 10,7 3.95036,0.94258 7,3.74917 7,8 0,4.38199 -2.86528,8.1969 -7,9 l 0,8 -20,0 0,-8 c -4.13472,-0.8031 -7,-4.61801 -7,-9 0,-4.25083 3.04964,-7.05742 7,-8 1.35244,-4.36144 5.20673,-7 10,-7 z m 0,8 c -0.5523,0 -1,0.44772 -1,1 l 0,16 c 0,0.55228 0.4477,1 1,1 0.5523,0 1,-0.44772 1,-1 l 0,-16 c 0,-0.55228 -0.4477,-1 -1,-1 z m 5,4 c -0.5523,0 -1,0.44772 -1,1 l 0,12 c 0,0.55228 0.4477,1 1,1 0.5523,0 1,-0.44772 1,-1 l 0,-12 c 0,-0.55228 -0.4477,-1 -1,-1 z m -10,0 c -0.5523,0 -1,0.44772 -1,1 l 0,12 c 0,0.55228 0.4477,1 1,1 0.5523,0 1,-0.44772 1,-1 l 0,-12 c 0,-0.55228 -0.4477,-1 -1,-1 z m 14.1875,22 c 0.53024,1.2202 0.8125,2.5848 0.8125,4 0,5.52282 -4.47715,10.00002 -10,10.00002 -5.52285,0 -10,-4.4772 -10,-10.00002 0,-1.4152 0.28226,-2.7798 0.8125,-4 z M 50,1011.3622 c 11.634,0 22,5.1058 22,12 l 0,21 -16,0 0,-23 c 0.004,-0.5325 -0.21513,-1.0631 -0.59375,-1.4375 l -8.4375,-8.4375 c 1.00049,-0.077 2.00477,-0.125 3.03125,-0.125 z m -7.96875,0.8437 9.96875,9.9688 0,22.1875 -24,0 0,-21 c 0,-5.2512 6.02388,-9.4461 14.03125,-11.1563 z M 46,1021.3622 c -1.10457,0 -2,0.8954 -2,2 0,1.1046 0.89543,2 2,2 1.10457,0 2,-0.8954 2,-2 0,-1.1046 -0.89543,-2 -2,-2 z m 0,7 c -1.10457,0 -2,0.8954 -2,2 0,1.1046 0.89543,2 2,2 1.10457,0 2,-0.8954 2,-2 0,-1.1046 -0.89543,-2 -2,-2 z m 0,7 c -1.10457,0 -2,0.8954 -2,2 0,1.1046 0.89543,2 2,2 1.10457,0 2,-0.8954 2,-2 0,-1.1046 -0.89543,-2 -2,-2 z" fill="#000000" stroke="none" marker="none" visibility="visible" display="inline" overflow="visible"/></g><text x="0" y="115" fill="#000000" font-size="5px" font-weight="bold" font-family="'Helvetica Neue', Helvetica, Arial-Unicode, Arial, Sans-serif">Created by iconsphere</text><text x="0" y="120" fill="#000000" font-size="5px" font-weight="bold" font-family="'Helvetica Neue', Helvetica, Arial-Unicode, Arial, Sans-serif">from the Noun Project</text></svg>
